<svg width="42" height="42" viewBox="0 0 42 42" fill="none" xmlns="http://www.w3.org/2000/svg">
<path d="M16.3993 24.3462C16.2021 24.1431 15.8832 24.1431 15.686 24.3462L9.97899 30.2228C9.78174 30.4259 9.78174 30.7542 9.97899 30.9572C10.0774 31.0585 10.2065 31.1094 10.3356 31.1094C10.4648 31.1094 10.5939 31.0585 10.6923 30.9572L16.3993 25.0806C16.5966 24.8775 16.5966 24.5487 16.3993 24.3462Z" fill="#27AE60"/>
<path d="M17.1128 25.8152L11.4057 31.6918C11.2085 31.8949 11.2085 32.2232 11.4057 32.4262C11.5041 32.5275 11.6333 32.5784 11.7624 32.5784C11.8915 32.5784 12.0207 32.5275 12.1191 32.4262L17.8261 26.5496C18.0233 26.3465 18.0233 26.0182 17.8261 25.8152C17.6288 25.6121 17.31 25.6121 17.1128 25.8152Z" fill="#27AE60"/>
<path d="M26.3883 23.238L23.7156 20.4861L29.8398 14.1811H31.0576C31.1918 14.1811 31.3199 14.1265 31.4143 14.0289L33.5547 11.825C33.6495 11.7274 33.7025 11.5955 33.7025 11.4578C33.7025 11.3202 33.6495 11.1877 33.5547 11.0906L30.7009 8.15232C30.5037 7.94923 30.1849 7.94923 29.9876 8.15232L27.8472 10.3556C27.7523 10.4533 27.6994 10.5852 27.6994 10.7229V11.9767L21.5757 18.2823C20.9032 17.5894 19.4599 16.1034 18.9035 15.5305C19.5437 13.4965 19.0296 11.2527 17.5495 9.72975C16.137 8.2749 14.0601 7.71549 12.1295 8.2697C11.957 8.31956 11.8228 8.4598 11.7774 8.63796C11.732 8.81612 11.782 9.00674 11.9086 9.13763L13.8018 11.087L13.2141 13.3453L11.0197 13.951L9.12696 12.0022C9.00034 11.8713 8.8157 11.8198 8.64267 11.8671C8.46913 11.9139 8.33293 12.052 8.285 12.2302C7.74623 14.2169 8.28954 16.3548 9.70205 17.8102C11.1816 19.3336 13.3609 19.8623 15.3359 19.2037L18.0081 21.9555L17.3457 22.6375C16.9437 22.4396 16.5017 22.3316 16.0427 22.3316C15.234 22.3316 14.4743 22.6557 13.9027 23.2447L8.90802 28.3858C7.72858 29.6012 7.72858 31.5781 8.90802 32.7935L9.62184 33.5279C10.1934 34.1169 10.9536 34.441 11.7623 34.441C12.5709 34.441 13.3307 34.1169 13.9022 33.5279L18.8959 28.3858C19.468 27.7978 19.7828 27.0151 19.7828 26.183C19.7828 25.7103 19.6779 25.2553 19.4857 24.8414L20.148 24.1594L22.8207 26.9112C22.1805 28.9452 22.6951 31.1885 24.1747 32.7119C25.227 33.7954 26.6466 34.3823 28.1004 34.3823C28.5988 34.3823 29.1018 34.3133 29.5947 34.1715C29.7677 34.1216 29.9014 33.9819 29.9468 33.8032C29.9927 33.6245 29.9422 33.4344 29.8156 33.3041L27.9223 31.3547L28.51 29.0958L30.704 28.4907L32.5972 30.4401C32.7239 30.5709 32.9085 30.6229 33.082 30.5751C33.2556 30.5284 33.3918 30.3907 33.4397 30.2126C33.978 28.2258 33.4346 26.0874 32.0216 24.6326C30.5425 23.1081 28.3627 22.5783 26.3883 23.238ZM15.8237 18.2366C15.6825 18.0906 15.4691 18.0444 15.283 18.1202C13.6026 18.7986 11.6912 18.3888 10.4154 17.0757C9.47907 16.1112 9.00942 14.7794 9.09971 13.4435L10.5122 14.8978C10.6393 15.0293 10.826 15.0807 10.9995 15.0324L13.7564 14.2714C13.9305 14.2237 14.0667 14.0834 14.1131 13.9042L14.8516 11.0667C14.8986 10.8875 14.8486 10.6964 14.721 10.565L13.308 9.10958C14.6034 9.01401 15.8994 9.49966 16.8362 10.4642C18.1115 11.7767 18.51 13.7442 17.8552 15.4666C17.7261 15.7876 17.7261 15.7876 19.5911 17.7078L20.8623 19.0167L18.7219 21.2206L15.8237 18.2366ZM28.5605 12.5595C28.6553 12.4618 28.7083 12.3299 28.7083 12.1923V10.9384L30.3443 9.2545L32.4847 11.4578L30.8488 13.1423H29.631C29.4968 13.1423 29.3687 13.1968 29.2743 13.2944L18.8969 23.9792L18.1831 23.2447L28.5605 12.5595ZM18.1826 27.6514L13.1884 32.7935C12.4267 33.5788 11.0974 33.5788 10.3352 32.7935L9.62133 32.059C8.83437 31.2488 8.83437 29.93 9.62133 29.1202L14.616 23.9792C14.9969 23.5865 15.5034 23.3704 16.0427 23.3704C16.582 23.3704 17.0884 23.5865 17.4693 23.9792L18.1826 24.7136C18.564 25.1063 18.7739 25.6283 18.7739 26.183C18.7739 26.7377 18.564 27.2592 18.1826 27.6514ZM32.6245 28.9987L31.2115 27.5438C31.0843 27.4124 30.8997 27.36 30.7241 27.4093L27.9677 28.1697C27.7937 28.218 27.658 28.3577 27.6111 28.5369L26.8726 31.375C26.8256 31.5542 26.8756 31.7453 27.0032 31.8767L28.4167 33.3321C27.1167 33.4256 25.8248 32.942 24.888 31.9775C23.6132 30.665 23.2147 28.6974 23.873 26.9657C23.9461 26.7736 23.9018 26.5554 23.7595 26.4095L20.8613 23.4255L23.0023 21.2206L25.9004 24.2046C26.0427 24.351 26.2541 24.3973 26.4412 24.3209C28.1226 23.6431 30.034 24.0529 31.3083 25.3665C32.2451 26.3305 32.7148 27.6623 32.6245 28.9987Z" fill="#27AE60"/>
<circle cx="21" cy="21" r="20" stroke="#27AE60" stroke-width="2"/>
</svg>
