<svg width="90" height="90" fill="none" xmlns="http://www.w3.org/2000/svg"><path fill-rule="evenodd" clip-rule="evenodd" d="M45 90c24.853 0 45-20.147 45-45S69.853 0 45 0 0 20.147 0 45s20.147 45 45 45zm0-5c22.091 0 40-17.909 40-40S67.091 5 45 5 5 22.909 5 45s17.909 40 40 40z" fill="#27AE60"/><path fill-rule="evenodd" clip-rule="evenodd" d="M59.543 33.728 42.02 51.348l-10.471-10.53a2.643 2.643 0 0 0-1.879-.812 2.632 2.632 0 0 0-1.893.778A2.661 2.661 0 0 0 27 42.687a2.673 2.673 0 0 0 .806 1.89L40.15 56.986a2.638 2.638 0 0 0 3.74 0l19.394-19.5a2.667 2.667 0 0 0-.052-3.708 2.638 2.638 0 0 0-3.688-.05z" fill="#27AE60"/></svg>