<svg width="38" height="38" fill="none" xmlns="http://www.w3.org/2000/svg"><g clip-path="url(#a)"><path fill-rule="evenodd" clip-rule="evenodd" d="M20.297 38h-18.2A2.097 2.097 0 0 1 0 35.903V2.097C0 .94.939 0 2.097 0h33.806C37.06 0 38 .939 38 2.097v33.806C38 37.06 37.06 38 35.903 38H26.22V23.284h4.939l.74-5.735h-5.68v-3.661c0-1.66.461-2.792 2.842-2.792l3.037-.001v-5.13c-.525-.07-2.328-.226-4.425-.226-4.378 0-7.376 2.673-7.376 7.581v4.23h-4.952v5.734h4.952V38z" fill="#4460A0"/></g><defs><clipPath id="a"><path fill="#fff" d="M0 0h38v38H0z"/></clipPath></defs></svg>