<svg width="38" height="38" fill="none" xmlns="http://www.w3.org/2000/svg"><mask id="a" style="mask-type:alpha" maskUnits="userSpaceOnUse" x="0" y="0" width="38" height="38"><rect width="38" height="38" rx="2" fill="#41ABE1"/></mask><g mask="url(#a)"><path d="M19.007-1.727c-6.971 0-14.257-.054-20.543-.054-.14.97-.182 9.084-.19 14.036-.003 1.65 0 3.823 0 6.737 0 8.649.01 20.244.051 20.735h41.363c.027-.357.04-15.053.04-20.74 0-7.021.053-16.018.053-20.524-1.781 0-9.073-.182-14.028-.19h-6.746z" fill="url(#b)"/><path d="M19.007-1.727c-6.971 0-14.257-.054-20.543-.054-.14.97-.182 9.084-.19 14.036-.003 1.65 0 3.823 0 6.737 0 8.649.01 20.244.051 20.735h41.363c.027-.357.04-15.053.04-20.74 0-7.021.053-16.018.053-20.524-1.781 0-9.073-.182-14.028-.19h-6.746z" fill="url(#c)"/><path d="M19.001 6.91c-3.284 0-3.696.014-4.985.072-1.288.06-2.166.263-2.935.562a5.92 5.92 0 0 0-2.142 1.394 5.935 5.935 0 0 0-1.395 2.142c-.3.769-.504 1.648-.562 2.934-.058 1.29-.073 1.702-.073 4.986s.015 3.695.073 4.984c.06 1.287.263 2.166.562 2.935.309.795.722 1.47 1.394 2.142a5.92 5.92 0 0 0 2.141 1.395c.77.3 1.649.503 2.936.562 1.29.059 1.701.073 4.985.073 3.284 0 3.694-.014 4.984-.073 1.287-.059 2.167-.263 2.936-.562a5.915 5.915 0 0 0 2.14-1.395 5.934 5.934 0 0 0 1.396-2.142c.297-.769.501-1.648.562-2.934.058-1.29.073-1.701.073-4.985 0-3.284-.015-3.696-.073-4.985-.06-1.288-.265-2.166-.562-2.935a5.933 5.933 0 0 0-1.395-2.142 5.91 5.91 0 0 0-2.142-1.394c-.77-.299-1.65-.503-2.937-.562-1.29-.058-1.7-.073-4.985-.073h.004zm-1.085 2.178h1.085c3.228 0 3.611.012 4.886.07 1.179.053 1.819.25 2.245.416.564.22.966.481 1.39.904.422.423.684.827.904 1.39.166.426.363 1.066.416 2.245.058 1.275.071 1.658.071 4.884 0 3.227-.013 3.61-.07 4.884-.055 1.18-.251 1.82-.417 2.245a3.74 3.74 0 0 1-.905 1.389 3.741 3.741 0 0 1-1.39.904c-.425.166-1.065.363-2.244.417-1.275.058-1.658.07-4.886.07-3.229 0-3.611-.012-4.886-.07-1.179-.055-1.818-.252-2.245-.417a3.744 3.744 0 0 1-1.39-.904 3.747 3.747 0 0 1-.905-1.39c-.166-.426-.363-1.066-.417-2.244-.057-1.275-.069-1.658-.069-4.887 0-3.229.012-3.61.07-4.884.053-1.179.25-1.819.416-2.245.219-.564.482-.967.905-1.39a3.753 3.753 0 0 1 1.39-.905c.426-.166 1.066-.363 2.245-.417 1.116-.05 1.548-.065 3.801-.068v.003zm7.54 2.008a1.45 1.45 0 1 0-.001 2.902 1.45 1.45 0 0 0 0-2.903zM19 12.79a6.21 6.21 0 1 0 .001 12.419 6.21 6.21 0 0 0-.001-12.42zm0 2.179a4.03 4.03 0 1 1 0 8.06 4.03 4.03 0 0 1 0-8.06z" fill="#fff"/></g><defs><radialGradient id="b" cx="0" cy="0" r="1" gradientUnits="userSpaceOnUse" gradientTransform="matrix(0 -41.0845 38.2118 0 9.284 42.92)"><stop stop-color="#FD5"/><stop offset=".1" stop-color="#FD5"/><stop offset=".5" stop-color="#FF543E"/><stop offset="1" stop-color="#C837AB"/></radialGradient><radialGradient id="c" cx="0" cy="0" r="1" gradientUnits="userSpaceOnUse" gradientTransform="rotate(78.681 -5.078 -4.69) scale(18.3889 75.7996)"><stop stop-color="#3771C8"/><stop offset=".128" stop-color="#3771C8"/><stop offset="1" stop-color="#60F" stop-opacity="0"/></radialGradient></defs></svg>