<svg width="38" height="38" fill="none" xmlns="http://www.w3.org/2000/svg"><rect width="38" height="38" rx="2" fill="#CE1312"/><path fill-rule="evenodd" clip-rule="evenodd" d="m16.316 22.004-.001-7.59 7.025 3.808-7.024 3.782zm15.424-8.906s-.254-1.86-1.034-2.68c-.988-1.077-2.097-1.082-2.604-1.144C24.463 9 19.006 9 19.006 9h-.012s-5.457 0-9.096.274c-.508.062-1.616.067-2.605 1.143-.78.82-1.033 2.681-1.033 2.681S6 15.285 6 17.471v2.05c0 2.186.26 4.371.26 4.371s.253 1.862 1.033 2.681c.99 1.077 2.288 1.043 2.867 1.155C12.24 27.936 19 28 19 28s5.463-.008 9.102-.282c.507-.063 1.616-.068 2.604-1.145.78-.82 1.034-2.68 1.034-2.68s.26-2.186.26-4.373v-2.05c0-2.185-.26-4.371-.26-4.371z" fill="#fff"/></svg>