<svg width="12" height="18" viewBox="0 0 12 18" fill="none" xmlns="http://www.w3.org/2000/svg">
<path d="M6 0C2.69474 0 0 2.60045 0 5.79007C0 9.30885 3.6195 14.7273 5.23603 16.9717C5.6167 17.5003 6.38216 17.4992 6.76174 16.9699C8.37716 14.7172 12 9.27437 12 5.76975C12 2.58013 9.30526 0 6 0ZM6 8.95937C4.14737 8.95937 2.63158 7.49661 2.63158 5.7088C2.63158 3.92099 4.14737 2.45824 6 2.45824C7.85263 2.45824 9.36842 3.92099 9.36842 5.7088C9.36842 7.49661 7.85263 8.95937 6 8.95937Z" fill="white"/>
</svg>
